<svg xmlns="http://www.w3.org/2000/svg" xmlns:xlink="http://www.w3.org/1999/xlink" width="500" zoomAndPan="magnify" viewBox="0 0 375 374.999991" height="500" preserveAspectRatio="xMidYMid meet" version="1.0"><defs><g/><clipPath id="e28611b032"><rect x="0" width="375" y="0" height="302"/></clipPath></defs><g transform="matrix(1, 0, 0, 1, 0, 20)"><g clip-path="url(#e28611b032)"><g fill="#1e1e1e" fill-opacity="1"><g transform="translate(9.627349, 221.374345)"><g><path d="M 66.953125 -35.46875 C 68.429688 -33.019531 69.25 -30.398438 69.40625 -27.609375 C 69.625 -23.890625 68.582031 -20.53125 66.28125 -17.53125 C 63.988281 -14.539062 60.851562 -12.925781 56.875 -12.6875 C 54.34375 -12.539062 51.503906 -13.109375 48.359375 -14.390625 C 45.222656 -15.679688 41.894531 -17.957031 38.375 -21.21875 C 35.375 -17.707031 32.46875 -14.367188 29.65625 -11.203125 C 26.84375 -8.035156 23.375 -6.332031 19.25 -6.09375 C 18.1875 -6.03125 16.367188 -6.289062 13.796875 -6.875 C 11.234375 -7.46875 8.84375 -8.503906 6.625 -9.984375 C 4.414062 -11.460938 3.226562 -13.59375 3.0625 -16.375 C 2.925781 -18.769531 3.503906 -21.472656 4.796875 -24.484375 C 6.085938 -27.492188 7.679688 -30.453125 9.578125 -33.359375 C 11.472656 -36.265625 13.347656 -38.90625 15.203125 -41.28125 C 17.066406 -43.65625 18.441406 -45.398438 19.328125 -46.515625 L 7.765625 -59.453125 C 5.484375 -61.847656 4.253906 -64.578125 4.078125 -67.640625 C 3.898438 -70.828125 4.984375 -74.019531 7.328125 -77.21875 C 9.679688 -80.425781 12.519531 -82.125 15.84375 -82.3125 C 19.300781 -82.507812 22.617188 -81.566406 25.796875 -79.484375 C 28.984375 -77.410156 32.976562 -74.113281 37.78125 -69.59375 L 40.890625 -74.578125 C 44.660156 -80.660156 49.144531 -83.847656 54.34375 -84.140625 C 58.457031 -84.378906 62.015625 -83.316406 65.015625 -80.953125 C 68.023438 -78.597656 69.644531 -75.5 69.875 -71.65625 C 70.070312 -68.1875 69.296875 -64.832031 67.546875 -61.59375 C 65.804688 -58.363281 63.8125 -55.347656 61.5625 -52.546875 C 59.320312 -49.753906 57.476562 -47.1875 56.03125 -44.84375 C 57.144531 -43.84375 58.773438 -42.601562 60.921875 -41.125 C 63.078125 -39.644531 65.085938 -37.757812 66.953125 -35.46875 Z M 66.953125 -35.46875 "/></g></g></g><g fill="#1e1e1e" fill-opacity="1"><g transform="translate(83.788317, 217.086789)"><g><path d="M 7.328125 -46.234375 C 7.691406 -49.191406 7.972656 -52.375 8.171875 -55.78125 C 8.378906 -59.195312 8.859375 -62.457031 9.609375 -65.5625 C 10.359375 -68.675781 11.578125 -71.25 13.265625 -73.28125 C 14.953125 -75.3125 17.453125 -76.421875 20.765625 -76.609375 C 24.628906 -76.828125 28.316406 -75.367188 31.828125 -72.234375 C 35.347656 -69.109375 37.25 -65.085938 37.53125 -60.171875 C 37.164062 -57.347656 36.566406 -54.410156 35.734375 -51.359375 C 34.910156 -48.316406 34.585938 -45.269531 34.765625 -42.21875 C 34.816406 -41.28125 35.203125 -40.332031 35.921875 -39.375 C 36.648438 -38.425781 37.679688 -37.988281 39.015625 -38.0625 C 40.867188 -38.164062 42.492188 -39.421875 43.890625 -41.828125 C 45.285156 -44.242188 46.546875 -47.1875 47.671875 -50.65625 C 48.804688 -54.125 50.007812 -57.5625 51.28125 -60.96875 C 52.550781 -64.375 54.113281 -67.296875 55.96875 -69.734375 C 57.832031 -72.171875 60.09375 -73.46875 62.75 -73.625 C 64.613281 -73.726562 66.742188 -73.21875 69.140625 -72.09375 C 71.546875 -70.96875 73.640625 -69.328125 75.421875 -67.171875 C 77.210938 -65.015625 78.195312 -62.40625 78.375 -59.34375 C 78.4375 -58.269531 78.289062 -57.320312 77.9375 -56.5 C 76.25 -51.195312 74.238281 -45.613281 71.90625 -39.75 C 69.570312 -33.882812 66.789062 -28.328125 63.5625 -23.078125 C 60.332031 -17.828125 56.582031 -13.476562 52.3125 -10.03125 C 48.050781 -6.582031 43.128906 -4.695312 37.546875 -4.375 C 31.035156 -4 25.617188 -5.382812 21.296875 -8.53125 C 16.984375 -11.6875 13.753906 -15.664062 11.609375 -20.46875 C 9.472656 -25.28125 8.273438 -29.945312 8.015625 -34.46875 C 7.898438 -36.332031 7.882812 -38.265625 7.96875 -40.265625 C 8.050781 -42.265625 8.101562 -44.269531 8.125 -46.28125 C 8.125 -46.28125 8.054688 -46.273438 7.921875 -46.265625 C 7.796875 -46.253906 7.597656 -46.242188 7.328125 -46.234375 Z M 7.328125 -46.234375 "/></g></g></g><g fill="#1e1e1e" fill-opacity="1"><g transform="translate(161.737084, 212.580245)"><g><path d="M 25.53125 5.921875 C 19.53125 5.867188 14.742188 4.34375 11.171875 1.34375 C 7.597656 -1.644531 5.675781 -5.460938 5.40625 -10.109375 C 5.238281 -12.898438 5.671875 -15.796875 6.703125 -18.796875 C 9.703125 -27.097656 13.953125 -34.375 19.453125 -40.625 C 24.960938 -46.882812 32.171875 -51.265625 41.078125 -53.765625 C 43.710938 -54.585938 46.238281 -55.4375 48.65625 -56.3125 C 51.070312 -57.1875 53.347656 -58.753906 55.484375 -61.015625 C 59.367188 -65.097656 63.367188 -67.257812 67.484375 -67.5 C 70.546875 -67.675781 73.441406 -66.675781 76.171875 -64.5 C 78.898438 -62.332031 80.863281 -58.945312 82.0625 -54.34375 C 82.925781 -51.0625 84 -48.019531 85.28125 -45.21875 C 86.570312 -42.425781 88.804688 -40.125 91.984375 -38.3125 C 93.648438 -37.34375 95.117188 -36.195312 96.390625 -34.875 C 97.671875 -33.550781 98.363281 -31.957031 98.46875 -30.09375 C 98.65625 -26.78125 97.773438 -24.132812 95.828125 -22.15625 C 93.878906 -20.175781 91.492188 -18.734375 88.671875 -17.828125 C 85.859375 -16.929688 83.253906 -16.414062 80.859375 -16.28125 C 78.335938 -16.132812 75.863281 -16.289062 73.4375 -16.75 C 71.007812 -17.207031 68.617188 -18.234375 66.265625 -19.828125 C 63.765625 -21.546875 61.453125 -22.34375 59.328125 -22.21875 C 56.140625 -22.039062 53.46875 -19.757812 51.3125 -15.375 C 49.757812 -12.207031 47.613281 -8.976562 44.875 -5.6875 C 42.132812 -2.394531 39.296875 0.363281 36.359375 2.59375 C 33.421875 4.820312 30.6875 6.015625 28.15625 6.171875 C 27.5 6.203125 26.625 6.117188 25.53125 5.921875 Z M 25.53125 5.921875 "/></g></g></g><g fill="#1e1e1e" fill-opacity="1"><g transform="translate(264.007489, 206.667564)"><g><path d="M 56.640625 -44.484375 C 52.484375 -42.378906 49.257812 -39.222656 46.96875 -35.015625 C 44.675781 -30.816406 42.878906 -26.210938 41.578125 -21.203125 C 40.273438 -16.191406 38.953125 -11.378906 37.609375 -6.765625 C 36.273438 -2.148438 34.460938 1.6875 32.171875 4.75 C 29.890625 7.8125 26.691406 9.460938 22.578125 9.703125 C 18.578125 9.929688 15.351562 9.082031 12.90625 7.15625 C 10.46875 5.226562 8.65625 2.703125 7.46875 -0.421875 C 6.28125 -3.554688 5.582031 -6.988281 5.375 -10.71875 C 5.113281 -15.226562 5.753906 -19.660156 7.296875 -24.015625 C 8.847656 -28.378906 11.195312 -32.21875 14.34375 -35.53125 C 17.488281 -38.851562 21.15625 -41.164062 25.34375 -42.46875 C 29.144531 -43.613281 32.367188 -45.5 35.015625 -48.125 C 37.660156 -50.75 40.164062 -53.53125 42.53125 -56.46875 C 44.894531 -59.40625 47.414062 -61.984375 50.09375 -64.203125 C 52.769531 -66.421875 56.035156 -67.640625 59.890625 -67.859375 C 63.742188 -68.085938 67.226562 -67.222656 70.34375 -65.265625 C 73.457031 -63.316406 76.132812 -60.804688 78.375 -57.734375 C 80.625 -54.671875 82.378906 -51.4375 83.640625 -48.03125 C 84.898438 -44.632812 85.609375 -41.539062 85.765625 -38.75 C 86.023438 -34.226562 87.03125 -30.082031 88.78125 -26.3125 C 90.53125 -22.550781 94.25 -19.972656 99.9375 -18.578125 C 101.832031 -18.160156 103.613281 -17.328125 105.28125 -16.078125 C 106.957031 -14.835938 107.851562 -13.15625 107.96875 -11.03125 C 108.15625 -7.84375 106.976562 -5.109375 104.4375 -2.828125 C 101.90625 -0.554688 99.113281 0.664062 96.0625 0.84375 C 89.957031 1.195312 84.785156 -0.0664062 80.546875 -2.953125 C 76.304688 -5.847656 72.75 -9.675781 69.875 -14.4375 C 67 -19.195312 64.535156 -24.25 62.484375 -29.59375 C 60.441406 -34.945312 58.492188 -39.910156 56.640625 -44.484375 Z M 56.640625 -44.484375 "/></g></g></g></g></g></svg>