<svg xmlns="http://www.w3.org/2000/svg" xmlns:xlink="http://www.w3.org/1999/xlink" width="500" zoomAndPan="magnify" viewBox="0 0 375 374.999991" height="500" preserveAspectRatio="xMidYMid meet" version="1.0"><defs><g/><clipPath id="14b1731dbc"><rect x="0" width="359" y="0" height="375"/></clipPath><clipPath id="bffe0869ba"><rect x="0" width="278" y="0" height="203"/></clipPath></defs><g transform="matrix(1, 0, 0, 1, 16, 0)"><g clip-path="url(#14b1731dbc)"><g fill="#545454" fill-opacity="1"><g transform="translate(24.053905, 306.991861)"><g><path d="M -19.328125 -276.109375 C -19.328125 -289.921875 -9.894531 -296.828125 8.96875 -296.828125 L 91.109375 -296.828125 C 98.015625 -296.828125 104.570312 -295.210938 110.78125 -291.984375 C 117 -288.765625 122.179688 -283.703125 126.328125 -276.796875 L 128.390625 -273.34375 L 150.484375 -250.578125 C 153.703125 -255.640625 156.804688 -260.46875 159.796875 -265.0625 C 162.785156 -269.664062 165.894531 -274.039062 169.125 -278.1875 C 172.800781 -283.25 178.085938 -287.617188 184.984375 -291.296875 C 191.890625 -294.984375 198.109375 -296.828125 203.640625 -296.828125 L 255.40625 -296.828125 C 270.59375 -296.828125 279.796875 -291.53125 283.015625 -280.9375 L 310.625 -253.328125 C 318.445312 -245.503906 317.523438 -234.460938 307.859375 -220.203125 L 307.171875 -220.203125 L 234.703125 -116.65625 C 247.585938 -95.488281 260.929688 -73.742188 274.734375 -51.421875 C 288.535156 -29.109375 301.878906 -7.132812 314.765625 14.5 C 322.585938 27.382812 324.3125 37.046875 319.9375 43.484375 C 315.570312 49.929688 307.40625 53.15625 295.4375 53.15625 L 212.609375 53.15625 C 208.003906 53.15625 203.285156 52.234375 198.453125 50.390625 C 193.617188 48.546875 189.363281 45.785156 185.6875 42.109375 L 160.140625 16.5625 C 155.546875 14.726562 151.40625 11.507812 147.71875 6.90625 L 129.078125 35.203125 C 125.398438 39.804688 120.222656 43.945312 113.546875 47.625 C 106.878906 51.3125 101.015625 53.15625 95.953125 53.15625 L 44.875 53.15625 C 35.664062 53.15625 28.757812 50.851562 24.15625 46.25 L -3.453125 18.640625 C -13.117188 15.878906 -17.953125 9.4375 -17.953125 -0.6875 C -17.953125 -6.664062 -14.957031 -13.800781 -8.96875 -22.09375 C 3.445312 -39.570312 15.640625 -57.285156 27.609375 -75.234375 C 39.578125 -93.179688 51.773438 -110.898438 64.203125 -128.390625 L -13.109375 -254.71875 C -17.253906 -262.539062 -19.328125 -269.671875 -19.328125 -276.109375 Z M -19.328125 -276.109375 "/></g></g></g></g></g><g transform="matrix(1, 0, 0, 1, 87, 146)"><g clip-path="url(#bffe0869ba)"><g fill="#545454" fill-opacity="1"><g transform="translate(6.189702, 144.735748)"><g><path d="M 54.359375 -25.222656 C 55.730469 -22.613281 56.417969 -19.859375 56.417969 -16.960938 C 56.417969 -12.945312 55.09375 -9.402344 52.453125 -6.328125 C 49.605469 -3.019531 45.917969 -1.363281 41.394531 -1.363281 C 38.761719 -1.363281 35.972656 -2.066406 33.03125 -3.472656 C 30.242188 -4.808594 27.421875 -6.957031 24.574219 -9.917969 L 28.460938 -13.65625 L 32.347656 -9.921875 C 30.023438 -7.5 27.769531 -5.199219 25.585938 -3.015625 C 22.378906 0.191406 18.546875 1.796875 14.085938 1.796875 C 12.808594 1.796875 11.015625 1.460938 8.707031 0.792969 C 6.253906 0.0859375 4 -1.042969 1.941406 -2.585938 C -1.03125 -4.816406 -2.515625 -7.832031 -2.515625 -11.640625 C -2.515625 -14.214844 -1.800781 -16.9375 -0.367188 -19.800781 C 0.828125 -22.1875 2.257812 -24.511719 3.925781 -26.773438 C 5.507812 -28.910156 7.066406 -30.855469 8.605469 -32.601562 L 11.765625 -36.1875 L 15.8125 -32.628906 L 11.589844 -29.277344 L 3.828125 -39.050781 L 8.050781 -42.402344 L 3.925781 -38.929688 C 1.546875 -41.753906 0.359375 -44.921875 0.359375 -48.4375 C 0.359375 -52.03125 1.679688 -55.425781 4.324219 -58.628906 C 7.222656 -62.136719 10.714844 -63.890625 14.804688 -63.890625 C 18.480469 -63.890625 21.894531 -62.722656 25.050781 -60.390625 C 27.511719 -58.574219 30.480469 -55.820312 33.960938 -52.140625 L 30.039062 -48.4375 L 25.640625 -51.554688 L 28.085938 -55.003906 C 32.125 -60.738281 36.945312 -63.601562 42.546875 -63.601562 C 46.875 -63.601562 50.582031 -62.242188 53.660156 -59.519531 C 56.933594 -56.628906 58.574219 -52.980469 58.574219 -48.582031 C 58.574219 -45.070312 57.609375 -41.757812 55.683594 -38.636719 C 54.125 -36.109375 52.375 -33.765625 50.433594 -31.609375 C 48.851562 -29.851562 47.546875 -28.242188 46.519531 -26.789062 L 42.113281 -29.898438 L 45.925781 -33.707031 C 46.53125 -33.101562 47.488281 -32.296875 48.792969 -31.285156 C 50.6875 -29.816406 52.410156 -28.011719 53.957031 -25.867188 L 54.179688 -25.558594 Z M 44.816406 -20.199219 L 49.589844 -22.710938 L 45.21875 -19.554688 C 44.277344 -20.859375 43.265625 -21.925781 42.191406 -22.757812 C 40.527344 -24.050781 39.230469 -25.15625 38.300781 -26.085938 L 35.089844 -29.296875 L 37.710938 -33.003906 C 38.984375 -34.808594 40.550781 -36.746094 42.417969 -38.820312 C 43.925781 -40.496094 45.289062 -42.320312 46.511719 -44.296875 C 47.363281 -45.683594 47.792969 -47.109375 47.792969 -48.582031 C 47.792969 -49.742188 47.367188 -50.695312 46.523438 -51.441406 C 45.480469 -52.363281 44.15625 -52.820312 42.546875 -52.820312 C 40.671875 -52.820312 38.785156 -51.472656 36.882812 -48.773438 L 30.636719 -39.957031 L 26.121094 -44.738281 C 23.082031 -47.953125 20.589844 -50.28125 18.644531 -51.722656 C 17.390625 -52.648438 16.113281 -53.109375 14.804688 -53.109375 C 14.101562 -53.109375 13.378906 -52.660156 12.636719 -51.761719 C 11.640625 -50.554688 11.140625 -49.445312 11.140625 -48.4375 C 11.140625 -47.546875 11.484375 -46.691406 12.171875 -45.875 L 12.222656 -45.816406 L 22.835938 -32.449219 L 16.691406 -25.46875 C 15.355469 -23.957031 13.992188 -22.257812 12.601562 -20.371094 C 11.300781 -18.609375 10.191406 -16.8125 9.277344 -14.980469 C 8.601562 -13.632812 8.265625 -12.519531 8.265625 -11.640625 C 8.265625 -11.460938 8.277344 -11.347656 8.300781 -11.300781 C 8.296875 -11.308594 8.292969 -11.3125 8.292969 -11.316406 C 8.316406 -11.289062 8.355469 -11.253906 8.410156 -11.210938 C 9.417969 -10.457031 10.515625 -9.90625 11.703125 -9.5625 C 13.035156 -9.175781 13.828125 -8.984375 14.085938 -8.984375 C 15.566406 -8.984375 16.859375 -9.535156 17.964844 -10.640625 C 20.09375 -12.769531 22.296875 -15.019531 24.570312 -17.386719 L 28.457031 -21.433594 L 32.34375 -17.390625 C 34.289062 -15.371094 36.070312 -13.972656 37.683594 -13.199219 C 39.152344 -12.496094 40.390625 -12.144531 41.394531 -12.144531 C 42.621094 -12.144531 43.582031 -12.550781 44.28125 -13.363281 C 45.183594 -14.410156 45.636719 -15.609375 45.636719 -16.960938 C 45.636719 -18.085938 45.363281 -19.164062 44.816406 -20.199219 Z M 44.816406 -20.199219 "/></g></g></g><g fill="#545454" fill-opacity="1"><g transform="translate(59.655684, 144.735748)"><g><path d="M 1.882812 -33.878906 C 2.246094 -35.875 2.566406 -38.039062 2.839844 -40.371094 C 3.164062 -43.136719 3.707031 -45.773438 4.472656 -48.285156 C 5.386719 -51.28125 6.773438 -53.78125 8.632812 -55.777344 C 10.992188 -58.3125 14.152344 -59.578125 18.109375 -59.578125 C 22.378906 -59.578125 26.234375 -57.855469 29.683594 -54.40625 C 33.132812 -50.957031 34.855469 -46.71875 34.855469 -41.683594 L 34.855469 -41.175781 L 34.761719 -40.675781 C 34.332031 -38.425781 33.722656 -36.109375 32.925781 -33.726562 C 32.390625 -32.125 32.125 -30.511719 32.125 -28.890625 C 32.125 -29.308594 32.0625 -29.609375 31.9375 -29.796875 C 31.648438 -30.230469 31.257812 -30.574219 30.761719 -30.820312 C 30.363281 -31.019531 29.980469 -31.117188 29.609375 -31.117188 C 29.164062 -31.117188 28.789062 -31.011719 28.480469 -30.800781 L 28.464844 -30.800781 C 28.554688 -30.898438 28.65625 -31.03125 28.769531 -31.203125 C 29.664062 -32.566406 30.523438 -34.296875 31.347656 -36.390625 C 32.332031 -38.902344 33.367188 -41.390625 34.449219 -43.855469 C 35.71875 -46.738281 37.242188 -49.21875 39.027344 -51.300781 C 41.539062 -54.230469 44.582031 -55.699219 48.152344 -55.699219 C 50.40625 -55.699219 52.773438 -55.023438 55.25 -53.679688 C 57.632812 -52.386719 59.660156 -50.601562 61.332031 -48.324219 C 63.230469 -45.746094 64.179688 -42.765625 64.179688 -39.382812 C 64.179688 -37.769531 63.84375 -36.292969 63.179688 -34.960938 L 58.355469 -37.371094 L 63.386719 -35.4375 C 61.90625 -31.585938 60.179688 -27.542969 58.214844 -23.3125 C 56.164062 -18.90625 53.78125 -14.757812 51.0625 -10.859375 C 48.171875 -6.710938 44.867188 -3.308594 41.15625 -0.648438 C 37.007812 2.324219 32.34375 3.808594 27.164062 3.808594 C 21.183594 3.808594 16.207031 2.179688 12.242188 -1.082031 C 8.53125 -4.136719 5.835938 -7.882812 4.15625 -12.320312 C 2.582031 -16.480469 1.796875 -20.519531 1.796875 -24.433594 C 1.796875 -25.957031 1.875 -27.523438 2.039062 -29.140625 C 2.175781 -30.519531 2.292969 -31.894531 2.382812 -33.273438 L 7.761719 -32.914062 L 7.761719 -27.523438 L 0.726562 -27.523438 Z M 12.492188 -31.949219 L 7.1875 -32.914062 L 7.1875 -38.304688 L 13.523438 -38.304688 L 13.140625 -32.558594 C 13.039062 -31.058594 12.914062 -29.5625 12.765625 -28.066406 C 12.640625 -26.808594 12.578125 -25.597656 12.578125 -24.433594 C 12.578125 -21.835938 13.132812 -19.066406 14.242188 -16.136719 C 15.242188 -13.488281 16.859375 -11.246094 19.089844 -9.410156 C 21.066406 -7.785156 23.757812 -6.972656 27.164062 -6.972656 C 30.035156 -6.972656 32.605469 -7.785156 34.878906 -9.414062 C 37.585938 -11.351562 40.035156 -13.890625 42.21875 -17.027344 C 44.582031 -20.410156 46.652344 -24.019531 48.4375 -27.859375 C 50.300781 -31.867188 51.933594 -35.683594 53.324219 -39.304688 L 53.417969 -39.550781 L 53.535156 -39.78125 C 53.441406 -39.597656 53.398438 -39.464844 53.398438 -39.382812 C 53.398438 -40.410156 53.148438 -41.261719 52.648438 -41.9375 C 51.925781 -42.921875 51.078125 -43.675781 50.105469 -44.203125 C 49.230469 -44.679688 48.582031 -44.917969 48.152344 -44.917969 C 47.886719 -44.917969 47.574219 -44.707031 47.214844 -44.285156 C 46.121094 -43.011719 45.15625 -41.421875 44.316406 -39.511719 C 43.292969 -37.183594 42.316406 -34.832031 41.382812 -32.457031 C 40.289062 -29.664062 39.085938 -27.273438 37.78125 -25.285156 C 35.613281 -21.988281 32.890625 -20.339844 29.609375 -20.339844 C 28.28125 -20.339844 27.058594 -20.617188 25.941406 -21.175781 C 24.726562 -21.78125 23.738281 -22.664062 22.96875 -23.816406 C 21.886719 -25.441406 21.34375 -27.132812 21.34375 -28.890625 C 21.34375 -31.679688 21.796875 -34.425781 22.699219 -37.136719 C 23.339844 -39.0625 23.832031 -40.914062 24.171875 -42.691406 L 29.464844 -41.683594 L 24.074219 -41.683594 C 24.074219 -43.738281 23.402344 -45.441406 22.058594 -46.78125 C 20.71875 -48.125 19.402344 -48.796875 18.109375 -48.796875 C 17.277344 -48.796875 16.75 -48.675781 16.523438 -48.429688 C 15.792969 -47.648438 15.214844 -46.554688 14.789062 -45.144531 C 14.210938 -43.246094 13.796875 -41.238281 13.546875 -39.113281 C 13.246094 -36.558594 12.894531 -34.171875 12.492188 -31.949219 Z M 12.492188 -31.949219 "/></g></g></g><g fill="#545454" fill-opacity="1"><g transform="translate(115.852495, 144.735748)"><g><path d="M 17.753906 10.695312 C 12.152344 10.324219 7.664062 8.546875 4.28125 5.363281 C 0.707031 2 -1.078125 -2.136719 -1.078125 -7.042969 C -1.078125 -9.761719 -0.511719 -12.503906 0.617188 -15.265625 C 3.398438 -21.789062 7.136719 -27.425781 11.832031 -32.179688 C 16.796875 -37.195312 23.050781 -40.539062 30.605469 -42.203125 L 31.765625 -36.941406 L 30.457031 -42.167969 C 32.296875 -42.628906 34.066406 -43.113281 35.761719 -43.617188 C 36.71875 -43.898438 37.699219 -44.515625 38.707031 -45.464844 C 42.722656 -49.21875 46.925781 -51.097656 51.3125 -51.097656 C 54.894531 -51.097656 58.128906 -49.800781 61.023438 -47.203125 C 63.78125 -44.730469 65.613281 -41.230469 66.515625 -36.703125 C 66.933594 -34.625 67.488281 -32.703125 68.183594 -30.945312 C 68.578125 -29.949219 69.398438 -29.042969 70.644531 -28.230469 C 72.238281 -27.167969 73.625 -25.949219 74.808594 -24.566406 C 76.539062 -22.550781 77.402344 -20.207031 77.402344 -17.535156 C 77.402344 -13.542969 76.066406 -10.339844 73.394531 -7.929688 C 71.253906 -5.992188 68.722656 -4.652344 65.800781 -3.90625 C 63.300781 -3.265625 60.964844 -2.945312 58.789062 -2.945312 C 56.523438 -2.945312 54.316406 -3.214844 52.160156 -3.753906 C 49.714844 -4.367188 47.382812 -5.519531 45.164062 -7.214844 C 44.390625 -7.820312 43.851562 -8.121094 43.550781 -8.121094 C 43.597656 -8.121094 43.640625 -8.128906 43.6875 -8.144531 L 43.691406 -8.144531 C 43.660156 -8.128906 43.625 -8.105469 43.585938 -8.074219 C 43.167969 -7.757812 42.710938 -7.15625 42.214844 -6.269531 C 40.753906 -3.683594 38.820312 -1.109375 36.417969 1.457031 C 34.035156 4.003906 31.570312 6.136719 29.027344 7.847656 C 25.914062 9.945312 22.898438 10.996094 19.980469 10.996094 C 19.058594 10.996094 18 10.847656 16.804688 10.546875 L 18.109375 5.316406 Z M 18.46875 -0.0585938 L 18.949219 -0.0273438 L 19.417969 0.0898438 C 19.640625 0.144531 19.824219 0.183594 19.972656 0.207031 L 19.980469 0.214844 C 20.703125 0.214844 21.710938 -0.222656 23.003906 -1.09375 C 24.871094 -2.351562 26.71875 -3.957031 28.546875 -5.910156 C 30.363281 -7.851562 31.785156 -9.730469 32.816406 -11.554688 C 34.042969 -13.734375 35.453125 -15.433594 37.050781 -16.648438 C 39.023438 -18.152344 41.1875 -18.902344 43.550781 -18.902344 C 46.316406 -18.902344 49.039062 -17.863281 51.714844 -15.78125 C 52.75 -14.988281 53.773438 -14.464844 54.777344 -14.214844 C 56.074219 -13.890625 57.410156 -13.726562 58.789062 -13.726562 C 60.058594 -13.726562 61.507812 -13.933594 63.128906 -14.347656 C 64.328125 -14.65625 65.34375 -15.183594 66.171875 -15.929688 C 66.46875 -16.203125 66.621094 -16.738281 66.621094 -17.535156 L 66.625 -17.550781 C 66.085938 -18.179688 65.460938 -18.730469 64.753906 -19.199219 C 61.59375 -21.261719 59.394531 -23.855469 58.160156 -26.980469 C 57.226562 -29.339844 56.488281 -31.878906 55.945312 -34.589844 C 55.507812 -36.769531 54.800781 -38.300781 53.820312 -39.179688 C 52.976562 -39.9375 52.140625 -40.316406 51.3125 -40.316406 C 49.761719 -40.316406 48.023438 -39.414062 46.097656 -37.613281 C 43.847656 -35.496094 41.425781 -34.050781 38.835938 -33.28125 C 36.988281 -32.730469 35.066406 -32.207031 33.074219 -31.710938 L 33 -31.691406 L 32.925781 -31.675781 C 27.445312 -30.46875 22.972656 -28.109375 19.5 -24.597656 C 15.765625 -20.820312 12.796875 -16.347656 10.59375 -11.183594 C 10 -9.726562 9.703125 -8.347656 9.703125 -7.042969 C 9.703125 -5.242188 10.359375 -3.722656 11.671875 -2.488281 C 13.175781 -1.070312 15.441406 -0.261719 18.46875 -0.0585938 Z M 18.46875 -0.0585938 "/></g></g></g><g fill="#545454" fill-opacity="1"><g transform="translate(189.583959, 144.735748)"><g><path d="M 44.707031 -24.671875 C 42.660156 -23.777344 41.023438 -22.339844 39.789062 -20.363281 C 38.203125 -17.8125 36.902344 -14.976562 35.886719 -11.847656 C 34.722656 -8.257812 33.558594 -4.8125 32.394531 -1.511719 C 31.027344 2.363281 29.246094 5.605469 27.050781 8.210938 C 24.203125 11.601562 20.453125 13.296875 15.8125 13.296875 C 11.574219 13.296875 8.105469 12.101562 5.410156 9.710938 C 2.984375 7.5625 1.261719 4.863281 0.246094 1.609375 C -0.636719 -1.214844 -1.078125 -4.242188 -1.078125 -7.472656 C -1.078125 -11.460938 -0.289062 -15.320312 1.285156 -19.054688 C 2.875 -22.824219 5.144531 -26.09375 8.09375 -28.867188 C 11.171875 -31.757812 14.699219 -33.703125 18.671875 -34.695312 C 20.613281 -35.164062 22.257812 -35.992188 23.601562 -37.175781 C 25.460938 -38.8125 27.234375 -40.5625 28.917969 -42.425781 C 30.980469 -44.703125 33.160156 -46.691406 35.464844 -48.390625 C 38.425781 -50.578125 41.890625 -51.671875 45.851562 -51.671875 C 49.777344 -51.671875 53.285156 -50.574219 56.378906 -48.375 C 59.097656 -46.441406 61.382812 -44.035156 63.242188 -41.15625 C 65 -38.441406 66.332031 -35.597656 67.246094 -32.632812 C 68.171875 -29.625 68.632812 -26.84375 68.632812 -24.292969 C 68.632812 -21.71875 69.058594 -19.363281 69.90625 -17.222656 C 70.375 -16.042969 71.800781 -15.085938 74.179688 -14.347656 C 76.175781 -13.777344 78.039062 -12.773438 79.773438 -11.328125 C 82.21875 -9.292969 83.4375 -6.667969 83.4375 -3.449219 C 83.4375 0.578125 81.804688 3.898438 78.539062 6.507812 C 75.640625 8.828125 72.457031 9.988281 68.992188 9.988281 C 63.359375 9.988281 58.597656 8.492188 54.707031 5.492188 C 51.164062 2.761719 48.273438 -0.722656 46.042969 -4.960938 C 44.023438 -8.789062 42.34375 -12.820312 41 -17.054688 C 39.765625 -20.945312 38.582031 -24.546875 37.445312 -27.859375 L 42.546875 -29.609375 Z M 40.386719 -34.546875 L 45.746094 -36.894531 L 47.644531 -31.359375 C 48.808594 -27.964844 50.019531 -24.285156 51.277344 -20.316406 C 52.425781 -16.691406 53.859375 -13.25 55.578125 -9.988281 C 57.082031 -7.136719 58.984375 -4.820312 61.285156 -3.046875 C 63.238281 -1.542969 65.808594 -0.792969 68.992188 -0.792969 C 69.9375 -0.792969 70.875 -1.164062 71.804688 -1.910156 C 72.375 -2.363281 72.65625 -2.878906 72.65625 -3.449219 C 72.65625 -3.300781 72.730469 -3.164062 72.871094 -3.046875 C 72.304688 -3.519531 71.679688 -3.851562 70.992188 -4.050781 C 65.324219 -5.804688 61.621094 -8.871094 59.886719 -13.25 C 58.53125 -16.664062 57.851562 -20.347656 57.851562 -24.292969 C 57.851562 -25.761719 57.550781 -27.488281 56.941406 -29.460938 C 56.320312 -31.476562 55.402344 -33.425781 54.1875 -35.308594 C 53.078125 -37.03125 51.722656 -38.457031 50.128906 -39.589844 C 48.910156 -40.457031 47.484375 -40.890625 45.851562 -40.890625 C 44.253906 -40.890625 42.925781 -40.5 41.867188 -39.71875 C 40.144531 -38.445312 38.492188 -36.9375 36.914062 -35.191406 C 34.957031 -33.027344 32.894531 -30.992188 30.730469 -29.085938 C 28.050781 -26.726562 24.902344 -25.109375 21.285156 -24.234375 C 19.128906 -23.695312 17.191406 -22.621094 15.476562 -21.011719 C 13.636719 -19.277344 12.21875 -17.230469 11.21875 -14.867188 C 10.207031 -12.46875 9.703125 -10.003906 9.703125 -7.472656 C 9.703125 -5.339844 9.980469 -3.382812 10.535156 -1.609375 C 10.957031 -0.261719 11.628906 0.820312 12.558594 1.640625 C 13.214844 2.222656 14.296875 2.515625 15.8125 2.515625 C 17.109375 2.515625 18.105469 2.101562 18.800781 1.273438 C 20.152344 -0.332031 21.292969 -2.457031 22.226562 -5.101562 C 23.359375 -8.316406 24.496094 -11.671875 25.632812 -15.175781 C 26.917969 -19.136719 28.585938 -22.769531 30.640625 -26.0625 C 33.050781 -29.933594 36.296875 -32.761719 40.386719 -34.546875 Z M 40.386719 -34.546875 "/></g></g></g><g fill="#ffffff" fill-opacity="1"><g transform="translate(6.189702, 144.735748)"><g><path d="M 49.59375 -22.703125 C 50.550781 -20.890625 51.03125 -18.972656 51.03125 -16.953125 C 51.03125 -14.273438 50.140625 -11.90625 48.359375 -9.84375 C 46.585938 -7.78125 44.265625 -6.75 41.390625 -6.75 C 39.578125 -6.75 37.566406 -7.273438 35.359375 -8.328125 C 33.148438 -9.390625 30.847656 -11.164062 28.453125 -13.65625 C 26.160156 -11.257812 23.9375 -8.984375 21.78125 -6.828125 C 19.625 -4.671875 17.0625 -3.59375 14.09375 -3.59375 C 13.320312 -3.59375 12.023438 -3.851562 10.203125 -4.375 C 8.378906 -4.90625 6.703125 -5.742188 5.171875 -6.890625 C 3.640625 -8.046875 2.875 -9.628906 2.875 -11.640625 C 2.875 -13.367188 3.398438 -15.285156 4.453125 -17.390625 C 5.503906 -19.492188 6.773438 -21.550781 8.265625 -23.5625 C 9.753906 -25.582031 11.210938 -27.40625 12.640625 -29.03125 C 14.078125 -30.664062 15.132812 -31.863281 15.8125 -32.625 L 8.046875 -42.40625 C 6.515625 -44.21875 5.75 -46.226562 5.75 -48.4375 C 5.75 -50.738281 6.660156 -52.988281 8.484375 -55.1875 C 10.304688 -57.394531 12.410156 -58.5 14.796875 -58.5 C 17.296875 -58.5 19.644531 -57.679688 21.84375 -56.046875 C 24.050781 -54.421875 26.785156 -51.882812 30.046875 -48.4375 L 32.484375 -51.890625 C 35.453125 -56.109375 38.804688 -58.21875 42.546875 -58.21875 C 45.515625 -58.21875 48.03125 -57.304688 50.09375 -55.484375 C 52.15625 -53.660156 53.1875 -51.359375 53.1875 -48.578125 C 53.1875 -46.085938 52.488281 -43.71875 51.09375 -41.46875 C 49.707031 -39.21875 48.148438 -37.132812 46.421875 -35.21875 C 44.703125 -33.300781 43.265625 -31.523438 42.109375 -29.890625 C 42.878906 -29.128906 44.003906 -28.171875 45.484375 -27.015625 C 46.972656 -25.867188 48.34375 -24.429688 49.59375 -22.703125 Z M 49.59375 -22.703125 "/></g></g></g><g fill="#ffffff" fill-opacity="1"><g transform="translate(59.655684, 144.735748)"><g><path d="M 7.1875 -32.921875 C 7.570312 -35.023438 7.90625 -37.296875 8.1875 -39.734375 C 8.476562 -42.179688 8.957031 -44.503906 9.625 -46.703125 C 10.300781 -48.910156 11.285156 -50.707031 12.578125 -52.09375 C 13.867188 -53.488281 15.710938 -54.1875 18.109375 -54.1875 C 20.890625 -54.1875 23.476562 -52.988281 25.875 -50.59375 C 28.269531 -48.195312 29.46875 -45.226562 29.46875 -41.6875 C 29.082031 -39.675781 28.53125 -37.59375 27.8125 -35.4375 C 27.09375 -33.28125 26.734375 -31.097656 26.734375 -28.890625 C 26.734375 -28.222656 26.972656 -27.53125 27.453125 -26.8125 C 27.929688 -26.09375 28.648438 -25.734375 29.609375 -25.734375 C 30.953125 -25.734375 32.171875 -26.570312 33.265625 -28.25 C 34.367188 -29.925781 35.398438 -31.984375 36.359375 -34.421875 C 37.316406 -36.867188 38.320312 -39.289062 39.375 -41.6875 C 40.4375 -44.082031 41.6875 -46.117188 43.125 -47.796875 C 44.5625 -49.472656 46.238281 -50.3125 48.15625 -50.3125 C 49.488281 -50.3125 50.992188 -49.851562 52.671875 -48.9375 C 54.347656 -48.03125 55.785156 -46.757812 56.984375 -45.125 C 58.179688 -43.5 58.78125 -41.585938 58.78125 -39.390625 C 58.78125 -38.617188 58.640625 -37.945312 58.359375 -37.375 C 56.921875 -33.632812 55.242188 -29.703125 53.328125 -25.578125 C 51.410156 -21.460938 49.179688 -17.582031 46.640625 -13.9375 C 44.097656 -10.300781 41.222656 -7.332031 38.015625 -5.03125 C 34.804688 -2.726562 31.191406 -1.578125 27.171875 -1.578125 C 22.472656 -1.578125 18.640625 -2.796875 15.671875 -5.234375 C 12.703125 -7.679688 10.546875 -10.675781 9.203125 -14.21875 C 7.859375 -17.769531 7.1875 -21.175781 7.1875 -24.4375 C 7.1875 -25.78125 7.257812 -27.171875 7.40625 -28.609375 C 7.550781 -30.046875 7.671875 -31.484375 7.765625 -32.921875 C 7.765625 -32.921875 7.710938 -32.921875 7.609375 -32.921875 C 7.515625 -32.921875 7.375 -32.921875 7.1875 -32.921875 Z M 7.1875 -32.921875 "/></g></g></g><g fill="#ffffff" fill-opacity="1"><g transform="translate(115.852495, 144.735748)"><g><path d="M 18.109375 5.3125 C 13.796875 5.03125 10.414062 3.738281 7.96875 1.4375 C 5.53125 -0.863281 4.3125 -3.691406 4.3125 -7.046875 C 4.3125 -9.054688 4.742188 -11.113281 5.609375 -13.21875 C 8.097656 -19.0625 11.445312 -24.113281 15.65625 -28.375 C 19.875 -32.644531 25.242188 -35.5 31.765625 -36.9375 C 33.679688 -37.414062 35.523438 -37.914062 37.296875 -38.4375 C 39.066406 -38.96875 40.769531 -40.003906 42.40625 -41.546875 C 45.375 -44.316406 48.34375 -45.703125 51.3125 -45.703125 C 53.519531 -45.703125 55.554688 -44.863281 57.421875 -43.1875 C 59.285156 -41.507812 60.554688 -38.992188 61.234375 -35.640625 C 61.710938 -33.242188 62.359375 -31.015625 63.171875 -28.953125 C 63.984375 -26.898438 65.492188 -25.15625 67.703125 -23.71875 C 68.847656 -22.945312 69.851562 -22.054688 70.71875 -21.046875 C 71.582031 -20.046875 72.015625 -18.875 72.015625 -17.53125 C 72.015625 -15.132812 71.269531 -13.265625 69.78125 -11.921875 C 68.300781 -10.585938 66.53125 -9.65625 64.46875 -9.125 C 62.40625 -8.601562 60.507812 -8.34375 58.78125 -8.34375 C 56.96875 -8.34375 55.195312 -8.554688 53.46875 -8.984375 C 51.738281 -9.410156 50.0625 -10.25 48.4375 -11.5 C 46.707031 -12.84375 45.078125 -13.515625 43.546875 -13.515625 C 41.253906 -13.515625 39.242188 -11.976562 37.515625 -8.90625 C 36.265625 -6.707031 34.585938 -4.476562 32.484375 -2.21875 C 30.378906 0.03125 28.222656 1.894531 26.015625 3.375 C 23.804688 4.863281 21.796875 5.609375 19.984375 5.609375 C 19.503906 5.609375 18.878906 5.507812 18.109375 5.3125 Z M 18.109375 5.3125 "/></g></g></g><g fill="#ffffff" fill-opacity="1"><g transform="translate(189.583959, 144.735748)"><g><path d="M 42.546875 -29.609375 C 39.484375 -28.265625 37.039062 -26.128906 35.21875 -23.203125 C 33.394531 -20.285156 31.90625 -17.050781 30.75 -13.5 C 29.601562 -9.957031 28.453125 -6.554688 27.296875 -3.296875 C 26.148438 -0.046875 24.691406 2.628906 22.921875 4.734375 C 21.148438 6.847656 18.78125 7.90625 15.8125 7.90625 C 12.9375 7.90625 10.660156 7.160156 8.984375 5.671875 C 7.304688 4.191406 6.109375 2.300781 5.390625 0 C 4.671875 -2.300781 4.3125 -4.789062 4.3125 -7.46875 C 4.3125 -10.726562 4.957031 -13.890625 6.25 -16.953125 C 7.539062 -20.023438 9.382812 -22.6875 11.78125 -24.9375 C 14.175781 -27.1875 16.910156 -28.695312 19.984375 -29.46875 C 22.753906 -30.132812 25.144531 -31.351562 27.15625 -33.125 C 29.175781 -34.90625 31.09375 -36.800781 32.90625 -38.8125 C 34.726562 -40.820312 36.644531 -42.566406 38.65625 -44.046875 C 40.675781 -45.535156 43.070312 -46.28125 45.84375 -46.28125 C 48.625 -46.28125 51.09375 -45.515625 53.25 -43.984375 C 55.40625 -42.453125 57.222656 -40.535156 58.703125 -38.234375 C 60.191406 -35.929688 61.320312 -33.535156 62.09375 -31.046875 C 62.863281 -28.554688 63.25 -26.304688 63.25 -24.296875 C 63.25 -21.035156 63.796875 -18.015625 64.890625 -15.234375 C 65.992188 -12.453125 68.554688 -10.441406 72.578125 -9.203125 C 73.921875 -8.816406 75.164062 -8.144531 76.3125 -7.1875 C 77.46875 -6.226562 78.046875 -4.984375 78.046875 -3.453125 C 78.046875 -1.148438 77.085938 0.765625 75.171875 2.296875 C 73.253906 3.828125 71.195312 4.59375 69 4.59375 C 64.582031 4.59375 60.910156 3.46875 57.984375 1.21875 C 55.066406 -1.03125 52.671875 -3.925781 50.796875 -7.46875 C 48.929688 -11.019531 47.375 -14.757812 46.125 -18.6875 C 44.882812 -22.613281 43.691406 -26.253906 42.546875 -29.609375 Z M 42.546875 -29.609375 "/></g></g></g></g></g></svg>